<svg width="64" height="64" viewBox="0 0 64 64" xmlns="http://www.w3.org/2000/svg">
  <!-- Background circle -->
  <circle cx="32" cy="32" r="30" fill="#0078d4" stroke="#005a9e" stroke-width="2"/>
  
  <!-- Bird silhouette -->
  <path d="M20 28 C20 25, 22 23, 25 23 C28 23, 30 25, 30 28 L35 28 C38 28, 40 30, 40 33 C40 36, 38 38, 35 38 L30 38 C30 41, 28 43, 25 43 C22 43, 20 41, 20 38 Z" fill="white"/>
  
  <!-- Sync arrows -->
  <path d="M42 20 L46 24 L42 28 M46 24 L38 24" stroke="white" stroke-width="2" fill="none" stroke-linecap="round"/>
  <path d="M22 44 L18 40 L22 36 M18 40 L26 40" stroke="white" stroke-width="2" fill="none" stroke-linecap="round"/>
  
  <!-- Email envelope -->
  <rect x="45" y="45" width="14" height="10" rx="1" fill="white" opacity="0.9"/>
  <path d="M45 47 L52 52 L59 47" stroke="#0078d4" stroke-width="1" fill="none"/>
</svg>