<svg width="32" height="32" viewBox="0 0 32 32" xmlns="http://www.w3.org/2000/svg">
  <circle cx="16" cy="16" r="14" fill="#0078d4" stroke="#005a9e" stroke-width="1"/>
  <path d="M10 14 C10 12.5, 11 11.5, 12.5 11.5 C14 11.5, 15 12.5, 15 14 L17.5 14 C19 14, 20 15, 20 16.5 C20 18, 19 19, 17.5 19 L15 19 C15 20.5, 14 21.5, 12.5 21.5 C11 21.5, 10 20.5, 10 19 Z" fill="white"/>
  <path d="M21 10 L23 12 L21 14 M23 12 L19 12" stroke="white" stroke-width="1" fill="none" stroke-linecap="round"/>
  <path d="M11 22 L9 20 L11 18 M9 20 L13 20" stroke="white" stroke-width="1" fill="none" stroke-linecap="round"/>
  <rect x="22.5" y="22.5" width="7" height="5" rx="0.5" fill="white" opacity="0.9"/>
  <path d="M22.5 23.5 L26 26 L29.5 23.5" stroke="#0078d4" stroke-width="0.5" fill="none"/>
</svg>