<svg width="16" height="16" viewBox="0 0 16 16" xmlns="http://www.w3.org/2000/svg">
  <circle cx="8" cy="8" r="7" fill="#0078d4"/>
  <path d="M5 7 C5 6, 5.5 5.5, 6.5 5.5 C7.5 5.5, 8 6, 8 7 L9.5 7 C10.5 7, 11 7.5, 11 8.5 C11 9.5, 10.5 10, 9.5 10 L8 10 C8 11, 7.5 11.5, 6.5 11.5 C5.5 11.5, 5 11, 5 10 Z" fill="white"/>
  <path d="M11 4 L12 5 L11 6 M12 5 L9 5" stroke="white" stroke-width="0.5" fill="none"/>
  <path d="M5 12 L4 11 L5 10 M4 11 L7 11" stroke="white" stroke-width="0.5" fill="none"/>
</svg>